<?xml version="1.0" encoding="UTF-8"?>
<!--
  nox-mem canonical architecture diagram — light variant
  Palette D: background #fafafa, accent #00C896
  Generated from docs/architecture/diagram.mmd
  Pillars: Q (Quality) / A (Autonomy) / P (Product) / Lab / GTM Phase 2
-->
<svg xmlns="http://www.w3.org/2000/svg" viewBox="0 0 1200 820" width="1200" height="820"
     role="img" aria-label="nox-mem architecture diagram — light theme">
  <defs>
    <style>
      .layer-bg   { rx: 8; ry: 8; }
      .layer-title { font: bold 11px ui-monospace, SFMono-Regular, Menlo, monospace; }
      .node-box   { rx: 5; ry: 5; }
      .node-text  { font: 600 10px ui-monospace, SFMono-Regular, Menlo, monospace; }
      .node-sub   { font: 400 8px ui-monospace, SFMono-Regular, Menlo, monospace; opacity: 0.7; }
      .arrow      { fill: none; stroke-width: 1.5; marker-end: url(#arrowhead); }
    </style>
    <marker id="arrowhead" markerWidth="8" markerHeight="6" refX="7" refY="3" orient="auto">
      <polygon points="0 0, 8 3, 0 6" fill="#555"/>
    </marker>
  </defs>

  <!-- Background -->
  <rect width="1200" height="820" fill="#fafafa"/>

  <!-- Title -->
  <text x="600" y="32" text-anchor="middle"
        font="bold 16px ui-monospace, SFMono-Regular, Menlo, monospace"
        fill="#111">nox-mem architecture</text>
  <text x="600" y="50" text-anchor="middle"
        font="10px ui-monospace, SFMono-Regular, Menlo, monospace"
        fill="#666">Quality · Autonomy · Product · Lab · GTM Phase 2</text>
  <line x1="40" y1="62" x2="1160" y2="62" stroke="#e5e5e5" stroke-width="1"/>

  <!-- ── User Layer ─────────────────────────────────────── -->
  <rect class="layer-bg" x="30" y="75" width="1140" height="115"
        fill="#e6f7f2" stroke="#00c896" stroke-width="1.5" rx="8"/>
  <text class="layer-title" x="46" y="95" fill="#009970">User Layer</text>

  <!-- CLI -->
  <rect class="node-box" x="60" y="105" width="120" height="55" fill="#d0efe6" stroke="#00c896" stroke-width="1"/>
  <text class="node-text" x="120" y="127" text-anchor="middle" fill="#111">nox-mem CLI</text>
  <text class="node-sub" x="120" y="142" text-anchor="middle" fill="#009970">26+ commands</text>

  <!-- HTTP API -->
  <rect class="node-box" x="220" y="105" width="140" height="55" fill="#d0efe6" stroke="#00c896" stroke-width="1"/>
  <text class="node-text" x="290" y="127" text-anchor="middle" fill="#111">HTTP API</text>
  <text class="node-sub" x="290" y="142" text-anchor="middle" fill="#009970">:18802</text>

  <!-- MCP Server -->
  <rect class="node-box" x="400" y="105" width="140" height="55" fill="#d0efe6" stroke="#00c896" stroke-width="1"/>
  <text class="node-text" x="470" y="127" text-anchor="middle" fill="#111">MCP Server</text>
  <text class="node-sub" x="470" y="142" text-anchor="middle" fill="#009970">16 tools</text>

  <!-- Viewer SSE -->
  <rect class="node-box" x="580" y="105" width="150" height="55" fill="#d0efe6" stroke="#00c896" stroke-width="2"/>
  <text class="node-text" x="655" y="127" text-anchor="middle" fill="#111">Viewer SSE</text>
  <text class="node-sub" x="655" y="142" text-anchor="middle" fill="#009970">P5 · :18802/viewer</text>

  <!-- IDE Plugins -->
  <rect class="node-box" x="770" y="105" width="150" height="55" fill="#d0efe6" stroke="#00c896" stroke-width="1"/>
  <text class="node-text" x="845" y="127" text-anchor="middle" fill="#111">IDE Plugins</text>
  <text class="node-sub" x="845" y="142" text-anchor="middle" fill="#009970">P4 · Tier A (3 IDEs)</text>

  <!-- ── Pipeline Layer ──────────────────────────────────── -->
  <rect class="layer-bg" x="30" y="210" width="1140" height="140"
        fill="#edf7ed" stroke="#2ea043" stroke-width="1.5" rx="8"/>
  <text class="layer-title" x="46" y="230" fill="#2ea043">Pipeline Layer</text>

  <!-- Ingest Router -->
  <rect class="node-box" x="60" y="240" width="130" height="55" fill="#d4edda" stroke="#2ea043" stroke-width="1"/>
  <text class="node-text" x="125" y="262" text-anchor="middle" fill="#111">Ingest Router</text>
  <text class="node-sub" x="125" y="277" text-anchor="middle" fill="#2ea043">A2 · unified dispatch</text>

  <!-- Hybrid Search -->
  <rect class="node-box" x="220" y="240" width="130" height="55" fill="#d4edda" stroke="#2ea043" stroke-width="1"/>
  <text class="node-text" x="285" y="262" text-anchor="middle" fill="#111">Hybrid Search</text>
  <text class="node-sub" x="285" y="277" text-anchor="middle" fill="#2ea043">BM25 + dense + RRF</text>

  <!-- Answer Primitive -->
  <rect class="node-box" x="380" y="240" width="140" height="55" fill="#d4edda" stroke="#2ea043" stroke-width="1.5"/>
  <text class="node-text" x="450" y="262" text-anchor="middle" fill="#111">Answer Primitive</text>
  <text class="node-sub" x="450" y="277" text-anchor="middle" fill="#2ea043">P1</text>

  <!-- Privacy Redaction -->
  <rect class="node-box" x="550" y="240" width="145" height="55" fill="#d4edda" stroke="#2ea043" stroke-width="1"/>
  <text class="node-text" x="622" y="262" text-anchor="middle" fill="#111">Privacy Redaction</text>
  <text class="node-sub" x="622" y="277" text-anchor="middle" fill="#2ea043">A1 + A1.1 · default-deny</text>

  <!-- Event Bus -->
  <rect class="node-box" x="725" y="240" width="130" height="55" fill="#d4edda" stroke="#2ea043" stroke-width="1.5"/>
  <text class="node-text" x="790" y="262" text-anchor="middle" fill="#111">Event Bus</text>
  <text class="node-sub" x="790" y="277" text-anchor="middle" fill="#2ea043">P5a · fire-forget</text>

  <!-- Hooks -->
  <rect class="node-box" x="885" y="240" width="130" height="55" fill="#d4edda" stroke="#2ea043" stroke-width="1"/>
  <text class="node-text" x="950" y="262" text-anchor="middle" fill="#111">Hooks Auto-capture</text>
  <text class="node-sub" x="950" y="277" text-anchor="middle" fill="#2ea043">P2</text>

  <!-- Export -->
  <rect class="node-box" x="1045" y="240" width="110" height="55" fill="#d4edda" stroke="#2ea043" stroke-width="1"/>
  <text class="node-text" x="1100" y="262" text-anchor="middle" fill="#111">Export</text>
  <text class="node-sub" x="1100" y="277" text-anchor="middle" fill="#2ea043">A2 · AES-256-GCM</text>

  <!-- ── Quality Layer ────────────────────────────────────── -->
  <rect class="layer-bg" x="30" y="370" width="850" height="140"
        fill="#f0edf9" stroke="#8957e5" stroke-width="1.5" rx="8"/>
  <text class="layer-title" x="46" y="390" fill="#6e40c9">Quality Layer</text>

  <!-- FTS5 -->
  <rect class="node-box" x="60" y="400" width="110" height="55" fill="#e0d8f5" stroke="#8957e5" stroke-width="1"/>
  <text class="node-text" x="115" y="422" text-anchor="middle" fill="#111">FTS5 BM25</text>
  <text class="node-sub" x="115" y="437" text-anchor="middle" fill="#6e40c9">language-aware</text>

  <!-- sqlite-vec -->
  <rect class="node-box" x="200" y="400" width="115" height="55" fill="#e0d8f5" stroke="#8957e5" stroke-width="1"/>
  <text class="node-text" x="257" y="422" text-anchor="middle" fill="#111">sqlite-vec</text>
  <text class="node-sub" x="257" y="437" text-anchor="middle" fill="#6e40c9">Gemini 3072d</text>

  <!-- RRF Fusion -->
  <rect class="node-box" x="345" y="400" width="120" height="55" fill="#e0d8f5" stroke="#8957e5" stroke-width="1.5"/>
  <text class="node-text" x="405" y="422" text-anchor="middle" fill="#111">RRF Fusion</text>
  <text class="node-sub" x="405" y="437" text-anchor="middle" fill="#6e40c9">k=60 · lang-aware</text>

  <!-- Salience -->
  <rect class="node-box" x="495" y="400" width="145" height="55" fill="#e0d8f5" stroke="#8957e5" stroke-width="1.5"/>
  <text class="node-text" x="567" y="418" text-anchor="middle" fill="#111">Salience Formula</text>
  <text class="node-sub" x="567" y="433" text-anchor="middle" fill="#6e40c9">recency × pain ×</text>
  <text class="node-sub" x="567" y="447" text-anchor="middle" fill="#6e40c9">importance</text>

  <!-- KG Extraction -->
  <rect class="node-box" x="660" y="400" width="130" height="55" fill="#e0d8f5" stroke="#8957e5" stroke-width="1"/>
  <text class="node-text" x="725" y="422" text-anchor="middle" fill="#111">KG Extraction</text>
  <text class="node-sub" x="725" y="437" text-anchor="middle" fill="#6e40c9">L4 · Gemini 2.5 Flash</text>

  <!-- ── Storage Layer ─────────────────────────────────────── -->
  <rect class="layer-bg" x="30" y="530" width="1140" height="140"
        fill="#fff0ef" stroke="#f85149" stroke-width="1.5" rx="8"/>
  <text class="layer-title" x="46" y="550" fill="#cf222e">Storage Layer</text>

  <!-- chunks -->
  <rect class="node-box" x="60" y="560" width="130" height="55" fill="#fde8e7" stroke="#f85149" stroke-width="1"/>
  <text class="node-text" x="125" y="582" text-anchor="middle" fill="#111">chunks</text>
  <text class="node-sub" x="125" y="597" text-anchor="middle" fill="#cf222e">FTS5 · 62k+ rows</text>

  <!-- embeddings -->
  <rect class="node-box" x="220" y="560" width="140" height="55" fill="#fde8e7" stroke="#f85149" stroke-width="1"/>
  <text class="node-text" x="290" y="582" text-anchor="middle" fill="#111">vec_chunks</text>
  <text class="node-sub" x="290" y="597" text-anchor="middle" fill="#cf222e">~99.97% coverage</text>

  <!-- kg_entities -->
  <rect class="node-box" x="390" y="560" width="140" height="55" fill="#fde8e7" stroke="#f85149" stroke-width="1"/>
  <text class="node-text" x="460" y="582" text-anchor="middle" fill="#111">kg_entities</text>
  <text class="node-sub" x="460" y="597" text-anchor="middle" fill="#cf222e">~402 entities</text>

  <!-- kg_relations -->
  <rect class="node-box" x="560" y="560" width="140" height="55" fill="#fde8e7" stroke="#f85149" stroke-width="1"/>
  <text class="node-text" x="630" y="582" text-anchor="middle" fill="#111">kg_relations</text>
  <text class="node-sub" x="630" y="597" text-anchor="middle" fill="#cf222e">~544 typed edges</text>

  <!-- ops_audit -->
  <rect class="node-box" x="730" y="560" width="155" height="55" fill="#fde8e7" stroke="#f85149" stroke-width="1"/>
  <text class="node-text" x="807" y="582" text-anchor="middle" fill="#111">ops_audit</text>
  <text class="node-sub" x="807" y="597" text-anchor="middle" fill="#cf222e">append-only · triggers</text>

  <!-- telemetry -->
  <rect class="node-box" x="915" y="560" width="135" height="55" fill="#fde8e7" stroke="#f85149" stroke-width="1"/>
  <text class="node-text" x="982" y="582" text-anchor="middle" fill="#111">telemetry</text>
  <text class="node-sub" x="982" y="597" text-anchor="middle" fill="#cf222e">viewer + search</text>

  <!-- ── Provider Layer ──────────────────────────────────── -->
  <rect class="layer-bg" x="900" y="370" width="270" height="140"
        fill="#fdf8e6" stroke="#d29922" stroke-width="1.5" rx="8"/>
  <text class="layer-title" x="916" y="390" fill="#9a6700">Provider Layer · A3</text>

  <!-- Gemini -->
  <rect class="node-box" x="916" y="400" width="110" height="40" fill="#f5eacc" stroke="#d29922" stroke-width="1.5"/>
  <text class="node-text" x="971" y="425" text-anchor="middle" fill="#111">Gemini · default</text>

  <!-- OpenAI -->
  <rect class="node-box" x="916" y="450" width="110" height="30" fill="#f5eacc" stroke="#d29922" stroke-width="1"/>
  <text class="node-text" x="971" y="470" text-anchor="middle" fill="#666">OpenAI</text>

  <!-- Anthropic -->
  <rect class="node-box" x="1045" y="400" width="110" height="40" fill="#f5eacc" stroke="#d29922" stroke-width="1"/>
  <text class="node-text" x="1100" y="425" text-anchor="middle" fill="#666">Anthropic</text>

  <!-- Voyage -->
  <rect class="node-box" x="1045" y="450" width="110" height="30" fill="#f5eacc" stroke="#d29922" stroke-width="1"/>
  <text class="node-text" x="1100" y="470" text-anchor="middle" fill="#666">Voyage</text>

  <!-- ── Arrows: User → Pipeline ─────────────────────────── -->
  <line class="arrow" x1="120" y1="160" x2="120" y2="238" stroke="#666"/>
  <line class="arrow" x1="140" y1="160" x2="280" y2="238" stroke="#666"/>
  <line class="arrow" x1="290" y1="160" x2="445" y2="238" stroke="#666"/>
  <line class="arrow" x1="465" y1="160" x2="295" y2="238" stroke="#666"/>
  <line class="arrow" x1="655" y1="160" x2="785" y2="238" stroke="#00c896"/>
  <line class="arrow" x1="845" y1="160" x2="295" y2="160" stroke="#666"/>
  <line class="arrow" x1="950" y1="295" x2="195" y2="270" stroke="#2ea043"/>

  <!-- ── Arrows: Pipeline → Quality ─────────────────────── -->
  <line class="arrow" x1="250" y1="350" x2="115" y2="398" stroke="#666"/>
  <line class="arrow" x1="270" y1="350" x2="255" y2="398" stroke="#666"/>
  <line class="arrow" x1="170" y1="427" x2="343" y2="427" stroke="#666"/>
  <line class="arrow" x1="315" y1="427" x2="343" y2="427" stroke="#666"/>
  <line class="arrow" x1="465" y1="427" x2="493" y2="427" stroke="#666"/>
  <line class="arrow" x1="175" y1="270" x2="680" y2="410" stroke="#2ea043"/>

  <!-- ── Arrows: Pipeline → Storage ─────────────────────── -->
  <line class="arrow" x1="580" y1="318" x2="130" y2="558" stroke="#2ea043"/>
  <line class="arrow" x1="150" y1="318" x2="285" y2="558" stroke="#2ea043"/>
  <line class="arrow" x1="705" y1="470" x2="460" y2="558" stroke="#8957e5"/>
  <line class="arrow" x1="720" y1="470" x2="630" y2="558" stroke="#8957e5"/>
  <line class="arrow" x1="800" y1="318" x2="982" y2="558" stroke="#2ea043"/>

  <!-- ── Arrows: Provider ────────────────────────────────── -->
  <line class="arrow" x1="520" y1="265" x2="916" y2="415" stroke="#d29922"/>

  <!-- Legend -->
  <rect x="30" y="695" width="1140" height="90" fill="#fafafa" stroke="#e5e5e5" rx="4"/>
  <text x="46" y="715" font="bold 10px ui-monospace, Menlo, monospace" fill="#666">Pillars mapped:</text>
  <rect x="46" y="722" width="10" height="10" fill="#2ea043"/>
  <text x="62" y="732" font="9px ui-monospace, Menlo, monospace" fill="#666">P1 Answer · P2 Hooks · P5 Viewer · P5a EventBus → Pipeline</text>
  <rect x="46" y="742" width="10" height="10" fill="#2ea043"/>
  <text x="62" y="752" font="9px ui-monospace, Menlo, monospace" fill="#666">A1+A1.1 Redaction · A2 Ingest/Export · A3 Providers → Pipeline + Provider</text>
  <rect x="46" y="762" width="10" height="10" fill="#8957e5"/>
  <text x="62" y="772" font="9px ui-monospace, Menlo, monospace" fill="#666">L2 Conflict · L3 Confidence · L4 KG → Quality</text>
  <text x="600" y="715" font="9px ui-monospace, Menlo, monospace" text-anchor="middle" fill="#009970">nox-mem v3.7 · "Hybrid memory with shadow discipline — yours by design."</text>
</svg>
